PathFileType	4	(X/Y/Z)	D:\TRACE\v60_Jaco2_6-2-23\JustBodyDRS_Motion3_7-platform.trc
DataRate	CameraRate	NumFrames	NumMarkers	Units	OrigDataRate	OrigDataStartFrame	OrigNumFrames
100.00	100.00	      73	5	mm	100.00	3501	      7000
Frame#	Time	Left_Front			Right_Front			Left_Aft			Right_Aft			Post			
		X1	Y1	Z1	X2	Y2	Z2	X3	Y3	Z3	X4	Y4	Z4	X5	Y5	Z5	

3501	35.000	-750.59344	25.69456	-646.51392	820.13336	24.07086	-623.74036	-681.87561	0.01370	487.07956	733.22467	-4.03616	592.59955	44.78217	1330.47791	-928.04474	
3502	35.010	-750.60614	25.61899	-646.51929	820.14154	23.99738	-623.71210	-681.89911	0.03768	487.04953	733.17236	-4.11525	592.73151	44.81023	1330.29688	-928.23529	
3503	35.020	-750.60382	25.58327	-646.52197	820.11108	23.97495	-623.73492	-681.96997	0.10148	487.05560	732.72235	-4.41893	592.80969	44.56016	1330.21948	-928.37531	
3504	35.030	-750.61182	25.54313	-646.51569	820.09650	23.94505	-623.73529	-681.96375	0.09548	487.02481	733.13098	-3.89957	592.58411	44.38658	1330.26050	-928.55072	
3505	35.040	-750.63568	25.55630	-646.55762	820.10089	23.93401	-623.74963	-681.98932	0.17092	486.98624	733.11786	-3.85763	592.55927	44.38709	1330.23767	-928.84644	
3506	35.050	-750.67743	25.56197	-646.51465	820.09674	23.91695	-623.73004	-682.21368	0.51367	486.71729	733.03406	-3.84423	592.57062	44.34575	1330.16028	-929.06073	
3507	35.060	-750.73010	25.49952	-646.51837	820.06305	23.81658	-623.74243	-682.20605	0.48812	486.85925	733.01086	-3.80971	592.55219	44.27579	1330.05835	-929.11780	
3508	35.070	-750.74048	25.41505	-646.54688	820.03369	23.73964	-623.74286	-682.16119	0.24585	486.86734	732.96796	-3.77070	592.53888	44.19625	1329.93469	-929.22040	
3509	35.080	-750.75818	25.35422	-646.53998	820.04565	23.71247	-623.78796	-682.13086	0.27374	486.89999	732.90802	-3.71316	592.52332	44.19022	1329.90332	-929.21979	
3510	35.090	-750.70264	25.29713	-646.56122	820.04150	23.67242	-623.79871	-682.10016	0.29437	486.93805	732.87878	-3.67421	592.51501	44.13044	1329.76245	-929.21582	
3511	35.100	-750.71570	25.17767	-646.56976	819.98828	23.59725	-623.82672	-682.14075	0.26988	486.96216	732.88428	-3.60340	592.52740	44.08494	1329.63989	-929.26251	
3512	35.110	-750.80249	25.22568	-646.63934	819.95844	23.52712	-623.86133	-682.17596	0.28023	486.99506	732.92383	-3.54976	592.51813	44.09696	1329.52209	-929.30530	
3513	35.120	-750.83051	25.29728	-646.62488	819.90991	23.50516	-623.86572	-682.18280	0.35755	487.00522	732.87805	-3.55061	592.51935	44.08913	1329.42957	-929.37207	
3514	35.130	-750.84521	25.23727	-646.68793	819.96448	23.45479	-623.88495	-682.23322	0.41563	486.95569	732.92633	-3.51335	592.50842	44.11154	1329.30969	-929.51569	
3515	35.140	-750.84100	25.07730	-646.67987	819.99335	23.22379	-623.89716	-682.30493	0.47779	486.82031	732.80341	-3.52299	592.47015	44.03452	1329.22986	-929.69287	
3516	35.150	-750.72900	24.77069	-646.63300	819.96478	23.04233	-623.98895	-682.29578	0.47317	486.75085	732.81793	-3.43843	592.46967	43.96850	1329.09045	-929.81128	
3517	35.160	-750.58740	24.55820	-646.62366	819.89337	23.05049	-623.97400	-682.36383	0.57770	486.94180	732.79175	-3.39665	592.42737	44.14714	1328.86963	-929.97809	
3518	35.170	-750.66705	24.63066	-646.58386	819.90399	22.99336	-623.99622	-682.43024	0.70152	486.98026	732.77667	-3.35059	592.37433	44.14217	1328.59045	-930.27356	
3519	35.180	-750.70782	24.55653	-646.73248	819.91492	22.88702	-624.04877	-682.30450	0.70815	486.94611	732.76929	-3.21305	592.32965	44.08710	1328.41858	-930.50806	
3520	35.190	-750.71344	24.25846	-646.80963	819.91168	22.72292	-624.12494	-682.34802	0.87318	486.90427	732.66425	-3.12346	592.26678	44.00329	1328.40576	-930.91754	
3521	35.200	-750.76245	24.01829	-646.94861	819.86493	22.64568	-624.14728	-682.58777	1.15499	486.70346	732.51117	-3.01396	592.26508	44.08378	1328.21130	-931.36218	
3522	35.210	-750.76001	23.72731	-646.84155	819.82007	22.40779	-624.17609	-682.21875	0.49184	487.19370	732.54034	-2.81373	592.17828	44.03823	1327.97302	-931.80896	
3523	35.220	-750.76752	23.67356	-646.80725	819.80579	22.22188	-624.22339	-682.43701	1.06637	486.85513	732.46741	-2.77863	592.14496	44.12750	1327.87488	-932.20514	
3524	35.230	-750.76093	23.53988	-646.86908	819.85742	22.15922	-624.26062	-682.46368	1.24961	486.82733	732.54193	-2.61612	592.12628	44.29189	1327.73901	-932.71674	
3525	35.240	-750.87830	23.41142	-646.98187	819.89594	22.08838	-624.29504	-682.37915	1.37901	486.74219	732.62262	-2.41053	592.10089	44.24556	1327.56531	-933.23706	
3526	35.250	-751.00671	23.37577	-647.07379	819.86151	21.91414	-624.39008	-682.40430	1.48764	486.67581	732.64606	-2.18761	592.07263	44.27721	1327.12988	-933.60797	
3527	35.260	-751.05615	23.24663	-647.13953	819.81219	21.63487	-624.37634	-682.40936	1.59570	486.69775	732.58972	-2.01786	592.05469	44.41359	1326.84839	-933.79974	
3528	35.270	-751.00903	23.05716	-647.03900	819.80310	21.39886	-624.36664	-682.43329	1.64836	486.74783	732.64246	-1.81419	591.99603	44.55126	1326.59131	-934.04749	
3529	35.280	-750.95532	22.86271	-646.94226	819.80621	21.25451	-624.41986	-682.32269	1.76312	486.67630	732.53583	-1.71789	591.92926	44.56707	1326.39600	-934.32544	
3530	35.290	-751.00079	22.74248	-647.03137	820.02020	20.91457	-624.83276	-682.24213	1.97535	486.59747	732.65540	-1.56023	591.87268	44.46986	1326.25586	-934.56329	
3531	35.300	-751.09296	22.58696	-647.29004	819.79987	20.81128	-624.62512	-682.22876	2.12070	486.42825	732.57916	-1.50868	591.50031	44.17682	1325.92188	-935.20880	
3532	35.310	-751.09973	22.33238	-647.36975	819.81348	20.44820	-624.66931	-682.25824	2.24891	486.28842	732.52838	-1.43119	591.31921	44.14340	1325.20837	-935.70941	
3533	35.320	-751.16174	22.04985	-647.40295	819.77319	20.10138	-624.66656	-682.26801	2.34023	486.31824	732.51331	-1.43022	591.09973	43.92878	1324.80310	-936.06073	
3534	35.330	-751.02948	21.67824	-647.37439	819.78125	19.90846	-624.71692	-682.23645	2.41805	486.27570	732.76373	-0.79229	591.67932	44.08355	1324.49182	-936.64465	
3535	35.340	-750.97125	21.38301	-647.44177	819.79333	19.70387	-624.84229	-682.21765	2.57749	486.26047	732.60187	-0.67016	591.59430	44.49323	1324.28625	-937.28241	
3536	35.350	-751.10254	21.33099	-647.34149	819.87640	19.55801	-624.89709	-682.22998	2.79640	486.22290	732.61993	-0.51361	591.56293	44.41924	1323.75745	-938.28546	
3537	35.360	-751.04352	20.95899	-647.70221	819.94202	19.30423	-624.98529	-682.24994	2.98995	486.22754	732.58954	-0.14361	591.60876	44.18735	1323.36865	-939.22821	
3538	35.370	-751.17310	20.84175	-647.60303	820.17169	18.85078	-625.38794	-682.19434	2.83905	486.30203	732.38519	0.12670	591.69165	44.16736	1323.00354	-939.73016	
3539	35.380	-751.13171	20.15995	-647.60931	819.80920	18.52270	-625.08826	-682.61694	3.78418	485.65964	732.47614	0.42096	591.53131	44.11415	1322.41748	-940.47504	
3540	35.390	-750.82892	19.85634	-647.72363	819.85083	18.22753	-625.09692	-682.61310	4.00192	485.59375	732.58704	0.82109	591.27820	44.29237	1322.20068	-941.38220	
3541	35.400	-750.87402	19.49253	-647.88092	819.86078	18.01607	-625.17542	-682.57355	4.26471	485.49722	732.64862	1.04236	591.24036	44.44583	1321.91284	-942.09082	
3542	35.410	-750.79254	19.11661	-648.06934	819.83069	17.76989	-625.32532	-682.50104	4.56088	485.53055	732.67499	1.15059	591.19366	44.26167	1321.31311	-942.93823	
3543	35.420	-750.72083	18.72544	-648.29730	819.79663	17.41689	-625.44342	-682.41791	4.81228	485.52536	732.67755	1.26919	591.15765	44.26944	1320.75024	-943.23657	
3544	35.430	-750.91498	18.52118	-648.09570	819.77692	16.97276	-625.53912	-682.24731	4.65413	485.76010	732.56470	1.58704	591.06238	44.22736	1320.05566	-943.88757	
3545	35.440	-750.87878	18.26971	-648.21826	820.10901	16.44877	-625.95325	-682.21344	4.83264	485.73935	732.56689	1.84544	590.96649	44.28021	1319.80859	-944.19824	
3546	35.450	-750.62317	17.99464	-648.58960	819.93286	16.24112	-625.61060	-682.19214	5.04196	485.68332	732.59747	2.29632	590.84418	44.07182	1319.20105	-944.92419	
3547	35.460	-750.44708	17.52279	-648.65118	820.09497	15.99110	-625.60175	-682.15460	5.33813	485.48111	732.77637	2.75659	590.74695	44.20754	1318.46069	-945.79517	
3548	35.470	-750.30701	17.00364	-648.79047	820.13324	15.58649	-625.86078	-682.17871	5.70746	485.22873	732.96082	3.03266	590.62396	44.32788	1317.99841	-946.64478	
3549	35.480	-750.39551	16.56023	-648.91394	820.06671	15.07569	-625.99469	-682.16022	6.07224	485.04221	733.02649	3.31519	590.54773	44.41175	1317.44702	-947.44574	
3550	35.490	-750.50568	16.11557	-648.85986	819.96466	14.71345	-626.09796	-682.12231	6.29995	484.99899	733.05908	3.64046	590.43286	44.31169	1316.84644	-948.53638	
3551	35.500	-750.38623	15.71901	-648.76373	820.05298	14.42922	-626.15118	-681.97632	6.46587	484.99863	733.05280	3.84199	590.38879	44.52876	1316.22144	-949.74890	
3552	35.510	-750.19574	15.36923	-648.79993	820.15680	14.08634	-626.27643	-681.85162	6.75591	485.02188	733.20300	4.26502	590.41901	44.81811	1315.53992	-950.85803	
3553	35.520	-750.22705	14.99973	-649.02802	820.22650	13.71004	-626.36517	-681.67841	7.01721	484.83911	732.91779	4.22325	590.14063	44.76223	1315.32031	-951.72351	
3554	35.530	-750.25378	14.35832	-649.19293	820.39819	13.19329	-626.42859	-681.67004	7.29410	484.69220	732.94635	4.55586	589.59845	44.75853	1314.72913	-952.89313	
3555	35.540	-750.27228	13.83863	-649.30902	820.30927	12.75046	-626.56781	-681.72321	7.54681	484.55289	732.87653	5.47716	589.77405	44.86304	1313.88086	-953.70294	
3556	35.550	-750.44489	13.66652	-649.33160	820.30353	12.26851	-626.69086	-681.74182	7.92831	484.45554	733.06641	5.74642	589.98883	45.43312	1313.26318	-954.80548	
3557	35.560	-750.40393	13.25203	-649.54688	820.42780	11.89344	-626.76697	-681.71680	8.35454	484.30206	733.26599	6.15256	589.88812	45.33838	1312.84521	-955.57050	
3558	35.570	-750.22424	13.04769	-649.65674	820.53705	11.51201	-626.94537	-681.70563	8.70850	484.13730	733.31659	6.34831	589.93317	45.10308	1312.24438	-956.55048	
3559	35.580	-750.19214	12.78776	-649.81079	820.50922	11.03223	-627.11774	-681.58655	9.04169	484.02579	733.43036	6.60799	589.82825	45.17752	1311.52747	-957.25562	
3560	35.590	-750.07837	12.10432	-649.97986	820.59296	10.53115	-627.14429	-681.48566	9.16368	484.03540	733.47144	7.05495	589.66547	45.45761	1310.58130	-958.15814	
3561	35.600	-750.02368	11.25183	-650.03522	820.67242	10.11575	-627.26520	-681.42902	9.30413	483.98572	733.43591	7.58832	589.63586	45.68351	1310.29810	-959.02899	
3562	35.610	-750.26099	10.88663	-649.73596	820.70258	9.86406	-627.31189	-681.31873	9.59918	483.93814	733.41327	7.77755	589.44043	45.30844	1309.62268	-960.04071	
3563	35.620	-750.35638	10.68974	-649.84296	820.76202	9.51903	-627.45062	-681.19275	9.93897	483.77548	733.32898	8.02343	589.22699	45.45153	1308.68982	-961.18976	
3564	35.630	-749.98871	10.29410	-650.34589	820.78931	8.93178	-627.66968	-681.15558	10.40236	483.55478	733.25934	8.41066	589.13647	45.59499	1308.26868	-962.06647	
3565	35.640	-750.01343	9.90826	-650.58173	820.85608	8.21571	-627.72101	-681.29144	10.85590	483.35855	732.96094	8.37641	589.13556	45.73772	1307.49182	-963.29755	
3566	35.650	-749.96844	9.42954	-650.77063	820.89197	7.82951	-627.75470	-681.29742	11.16454	483.40094	733.16718	8.89293	589.08264	45.80718	1306.84912	-964.28387	
3567	35.660	-749.88556	9.02973	-650.76135	820.94641	7.62908	-627.74396	-681.30890	11.57052	483.33255	733.44287	9.42926	589.04840	46.01988	1306.19897	-965.06183	
3568	35.670	-749.71613	8.69513	-650.81140	821.01111	7.22987	-627.97260	-681.15485	12.00342	483.15601	733.43079	9.79154	588.84222	46.09877	1305.58203	-966.20996	
3569	35.680	-749.57172	8.01151	-650.85260	821.14746	6.67166	-628.18243	-681.04620	12.33428	482.96289	733.44122	10.17959	588.70538	46.08828	1304.97705	-967.52509	
3570	35.690	-749.43182	7.47483	-651.00745	821.24689	6.15805	-628.29596	-681.03351	12.64389	482.84796	733.53082	10.67028	588.64221	46.19159	1304.10327	-968.42694	
3571	35.700	-749.34503	6.86759	-651.25641	821.28412	5.78696	-628.43011	-680.97723	12.89308	482.77740	733.46729	10.76463	588.44531	46.31517	1303.45068	-969.33203	
3572	35.710	-749.32019	6.43033	-651.38135	821.28308	5.30406	-628.36157	-680.87909	13.03601	482.71304	734.07861	11.51870	588.51923	46.38823	1302.67737	-970.24725	
3573	35.720	-749.21991	5.81979	-651.82135	821.22687	4.73145	-628.57886	-680.69476	13.04933	482.68301	734.09711	11.68631	588.44366	46.42767	1302.10461	-971.31604	
